<svg width="216" height="57" viewBox="0 0 216 57" fill="none" xmlns="http://www.w3.org/2000/svg">
<g clip-path="url(#clip0_104_2)">
<path d="M34.3205 37.8417C32.4945 37.8417 31.0305 39.4622 31.0305 41.4833C31.0305 42.4492 31.3771 43.3754 31.9941 44.0584C32.6111 44.7413 33.4479 45.125 34.3205 45.125C35.1931 45.125 36.0299 44.7413 36.647 44.0584C37.264 43.3754 37.6106 42.4492 37.6106 41.4833C37.6106 40.5175 37.264 39.5912 36.647 38.9083C36.0299 38.2253 35.1931 37.8417 34.3205 37.8417ZM8 8.70833V12.35H11.2901L17.2122 26.1701L14.9749 30.6312C14.7282 31.141 14.5801 31.7419 14.5801 32.3792C14.5801 33.345 14.9268 34.2713 15.5438 34.9542C16.1608 35.6372 16.9976 36.0208 17.8702 36.0208H37.6106V32.3792H18.5611C18.452 32.3792 18.3474 32.3312 18.2703 32.2458C18.1932 32.1605 18.1499 32.0447 18.1499 31.924C18.1499 31.8329 18.1663 31.7601 18.1992 31.7055L19.6797 28.7375H31.9352C33.169 28.7375 34.2547 27.9727 34.814 26.862L40.7033 15.0812C40.8184 14.7899 40.9007 14.4804 40.9007 14.1708C40.9007 13.6879 40.7273 13.2248 40.4188 12.8833C40.1103 12.5418 39.6919 12.35 39.2556 12.35H14.9256L13.3793 8.70833M17.8702 37.8417C16.0442 37.8417 14.5801 39.4622 14.5801 41.4833C14.5801 42.4492 14.9268 43.3754 15.5438 44.0584C16.1608 44.7413 16.9976 45.125 17.8702 45.125C18.7428 45.125 19.5796 44.7413 20.1966 44.0584C20.8136 43.3754 21.1603 42.4492 21.1603 41.4833C21.1603 40.5175 20.8136 39.5912 20.1966 38.9083C19.5796 38.2253 18.7428 37.8417 17.8702 37.8417Z" fill="url(#paint0_linear_104_2)"/>
<path d="M79.128 17.44V40H72.856V27.552L68.6 40H63.352L59.064 27.456V40H52.792V17.44H60.376L66.04 32.096L71.576 17.44H79.128ZM88.9703 22.464V26.144H96.1703V30.912H88.9703V34.976H97.1303V40H82.6983V17.44H97.1303V22.464H88.9703ZM99.4615 28.672C99.4615 26.4533 99.9202 24.48 100.838 22.752C101.776 21.0027 103.099 19.648 104.806 18.688C106.512 17.7067 108.475 17.216 110.694 17.216C113.51 17.216 115.878 17.9733 117.798 19.488C119.718 20.9813 120.955 23.0187 121.51 25.6H114.758C114.352 24.7467 113.787 24.096 113.062 23.648C112.358 23.2 111.536 22.976 110.598 22.976C109.147 22.976 107.984 23.4987 107.11 24.544C106.256 25.568 105.83 26.944 105.83 28.672C105.83 30.4213 106.256 31.8187 107.11 32.864C107.984 33.888 109.147 34.4 110.598 34.4C111.536 34.4 112.358 34.176 113.062 33.728C113.787 33.28 114.352 32.6293 114.758 31.776H121.51C120.955 34.3573 119.718 36.4053 117.798 37.92C115.878 39.4133 113.51 40.16 110.694 40.16C108.475 40.16 106.512 39.68 104.806 38.72C103.099 37.7387 101.776 36.384 100.838 34.656C99.9202 32.9067 99.4615 30.912 99.4615 28.672ZM135.296 40.224C133.184 40.224 131.242 39.7333 129.472 38.752C127.701 37.7493 126.293 36.3733 125.248 34.624C124.224 32.8533 123.712 30.8587 123.712 28.64C123.712 26.4213 124.224 24.4373 125.248 22.688C126.293 20.9173 127.701 19.5413 129.472 18.56C131.242 17.5787 133.184 17.088 135.296 17.088C137.429 17.088 139.37 17.5787 141.12 18.56C142.89 19.5413 144.288 20.9173 145.312 22.688C146.336 24.4373 146.848 26.4213 146.848 28.64C146.848 30.8587 146.336 32.8533 145.312 34.624C144.288 36.3733 142.89 37.7493 141.12 38.752C139.349 39.7333 137.408 40.224 135.296 40.224ZM135.296 34.4C136.896 34.4 138.154 33.8773 139.072 32.832C140.01 31.7867 140.48 30.3893 140.48 28.64C140.48 26.848 140.01 25.44 139.072 24.416C138.154 23.3707 136.896 22.848 135.296 22.848C133.674 22.848 132.405 23.3707 131.488 24.416C130.57 25.44 130.112 26.848 130.112 28.64C130.112 30.4107 130.57 31.8187 131.488 32.864C132.405 33.888 133.674 34.4 135.296 34.4ZM176.003 17.44V40H169.731V27.552L165.475 40H160.227L155.939 27.456V40H149.667V17.44H157.251L162.915 32.096L168.451 17.44H176.003ZM205.909 17.44V40H199.637V27.552L195.381 40H190.133L185.845 27.456V40H179.573V17.44H187.157L192.821 32.096L198.357 17.44H205.909Z" fill="black"/>
</g>
<defs>
<linearGradient id="paint0_linear_104_2" x1="4.38093" y1="26.9167" x2="66.5632" y2="26.9167" gradientUnits="userSpaceOnUse">
<stop stop-color="#2FEAA8"/>
<stop offset="1" stop-color="#028CF3" stop-opacity="0"/>
</linearGradient>
<clipPath id="clip0_104_2">
<rect width="216" height="57" fill="white"/>
</clipPath>
</defs>
</svg>
